<svg width="37" height="37" viewBox="0 0 37 37" fill="none" xmlns="http://www.w3.org/2000/svg">
<path fill-rule="evenodd" clip-rule="evenodd" d="M28.6435 36.3688H7.72549C3.47649 36.3688 0.000488281 32.8918 0.000488281 28.6428V7.72576C0.000488281 3.47576 3.47649 -0.000244141 7.72549 -0.000244141H28.6435C32.8925 -0.000244141 36.3695 3.47576 36.3695 7.72576V28.6428C36.3695 32.8918 32.8925 36.3688 28.6435 36.3688" fill="#E8E7E7"/>
<path fill-rule="evenodd" clip-rule="evenodd" d="M14.4014 14.9609H18.4694L21.6334 21.7409L24.7974 14.9609H28.8644L21.6334 29.4249L14.4014 14.9609Z" fill="#9D2235"/>
<path fill-rule="evenodd" clip-rule="evenodd" d="M11.1204 14.1758V21.4078H7.50439V14.1758C7.50439 13.2148 7.68839 12.2928 8.05539 11.4068C8.42239 10.5218 8.94539 9.74085 9.62339 9.06285C10.3014 8.38485 11.0824 7.86185 11.9684 7.49485C12.8524 7.12785 13.7764 6.94385 14.7364 6.94385V10.5598C13.7384 10.5598 12.8864 10.9128 12.1794 11.6188C11.4734 12.3258 11.1204 13.1778 11.1204 14.1758" fill="#9D2235"/>
</svg>
