<svg xmlns="http://www.w3.org/2000/svg" xmlns:xlink="http://www.w3.org/1999/xlink" viewBox="0 0 60 69"><defs><style>.cls-1,.cls-2{fill:none;}.cls-1{clip-rule:evenodd;}.cls-3{clip-path:url(#clip-path);}.cls-4{clip-path:url(#clip-path-2);}.cls-5{fill:#fefefe;}.cls-6{clip-path:url(#clip-path-3);}.cls-7{clip-path:url(#clip-path-4);}.cls-8{clip-path:url(#clip-path-5);}.cls-9{isolation:isolate;}.cls-10{clip-path:url(#clip-path-6);}.cls-11{clip-path:url(#clip-path-7);}.cls-12{clip-path:url(#clip-path-8);}.cls-13{clip-path:url(#clip-path-10);}.cls-14{clip-path:url(#clip-path-12);}.cls-15{fill:#651f24;}</style><clipPath id="clip-path" transform="translate(1 1)"><path class="cls-1" d="M57.73,29.36c-.16-3-2.47-2.85-4.23-2.85a1,1,0,0,0-1,1L52.79,33H51.25c-.43-7.15-1.09-14.91-2-18.94C48.6,10.78,46.61,8,43.27,8H28v8.19H46.35a144.16,144.16,0,0,1,1.31,18.14H28V49.38h8.28a1.91,1.91,0,0,1,2.06,1.45L39,53.59c.45,2.09-1.57,3.32-3.69,3.32H28v4.31l.51,1.2a3.84,3.84,0,0,1,.2.6H41.28v2.32A1.64,1.64,0,0,0,42.94,67h4.68a1.64,1.64,0,0,0,1.65-1.66V63c2.13-1.24,2.57-2.3,2.57-4.7v-11c0-2-.15-6.32-.41-11.32H57a1,1,0,0,0,1-1ZM48.29,52.47a24.09,24.09,0,0,1-5.38,1.63c-1.37.33-1.72-1-1.24-2.9.89-3.6,2.9-4.35,5.12-5.26a1.85,1.85,0,0,1,.79-.15,1.79,1.79,0,0,1,1.65,1.62C49.51,48.8,49.84,51.56,48.29,52.47Z"/></clipPath><clipPath id="clip-path-2" transform="translate(1 1)"><rect class="cls-2" x="28" y="8" width="30" height="59"/></clipPath><clipPath id="clip-path-3" transform="translate(1 1)"><path class="cls-1" d="M22,0a3.07,3.07,0,0,0-3,3.12v1.4A1.46,1.46,0,0,0,20.44,6H26V0Z"/></clipPath><clipPath id="clip-path-4" transform="translate(1 1)"><rect class="cls-2" x="19" width="7" height="6"/></clipPath><clipPath id="clip-path-5" transform="translate(1 1)"><rect class="cls-2" width="58" height="67"/></clipPath><clipPath id="clip-path-6" transform="translate(1 1)"><rect class="cls-2" x="-1" width="43" height="67"/></clipPath><clipPath id="clip-path-7" transform="translate(1 1)"><rect class="cls-2" x="28" width="5" height="6"/></clipPath><clipPath id="clip-path-8" transform="translate(1 1)"><path class="cls-1" d="M35,0V6h5.56A1.46,1.46,0,0,0,42,4.52V3.12A3.07,3.07,0,0,0,39,0Z"/></clipPath><clipPath id="clip-path-10" transform="translate(1 1)"><path class="cls-1" d="M0,35a1,1,0,0,0,1,1h5.6c-.26,5-.41,9.35-.41,11.32v11c0,2.4.44,3.46,2.57,4.7v2.32A1.64,1.64,0,0,0,10.38,67h4.68a1.64,1.64,0,0,0,1.66-1.66V63H29.29a3.84,3.84,0,0,1,.2-.6l.51-1.2V56.91H22.71c-2.12,0-4.14-1.23-3.69-3.32l.64-2.75a1.91,1.91,0,0,1,2.06-1.46H30V34.32H10.34a144.14,144.14,0,0,1,1.31-18.13H30V8H14.73c-3.34,0-5.33,2.78-6,6.05-.87,4-1.53,11.79-2,18.94H5.21l.27-5.45a1,1,0,0,0-1-1c-1.76,0-4.07-.18-4.23,2.85ZM8.77,47.41a1.81,1.81,0,0,1,1.65-1.63,2,2,0,0,1,.79.16c2.22.91,4.23,1.67,5.12,5.26.48,1.94.13,3.24-1.24,2.9a24.09,24.09,0,0,1-5.38-1.63C8.16,51.56,8.49,48.8,8.77,47.41Z"/></clipPath><clipPath id="clip-path-12" transform="translate(1 1)"><polygon class="cls-1" points="24 43.46 24 39.54 27.08 39.54 27.08 36 30.92 36 30.92 39.54 34 39.54 34 43.46 30.92 43.46 30.92 47 27.08 47 27.08 43.46 24 43.46"/></clipPath></defs><g id="Camada_2" data-name="Camada 2"><g id="Camada_1-2" data-name="Camada 1"><g class="cls-3"><g class="cls-4"><rect class="cls-5" x="28" y="8" width="32" height="61"/></g></g><g class="cls-6"><g class="cls-7"><rect class="cls-5" x="19" width="9" height="8"/></g></g><g class="cls-8"><g class="cls-9"><g class="cls-10"><g class="cls-11"><rect class="cls-5" x="28" width="7" height="8"/></g><g class="cls-12"><g class="cls-8"><rect class="cls-5" x="35" width="9" height="8"/></g></g><g class="cls-13"><g class="cls-8"><rect class="cls-5" y="8" width="32" height="61"/></g></g><g class="cls-14"><g class="cls-8"><rect class="cls-15" x="24" y="36" width="12" height="13"/></g></g></g></g></g></g></g></svg>