<svg xmlns="http://www.w3.org/2000/svg" xmlns:xlink="http://www.w3.org/1999/xlink" viewBox="0 0 113.04 90"><defs><style>.cls-1,.cls-2{fill:none;}.cls-1{clip-rule:evenodd;}.cls-3{clip-path:url(#clip-path);}.cls-4{fill:#791b28;}.cls-5{clip-path:url(#clip-path-2);}.cls-6{clip-path:url(#clip-path-3);}.cls-7{clip-path:url(#clip-path-4);}.cls-8{isolation:isolate;}.cls-9{clip-path:url(#clip-path-5);}.cls-10{clip-path:url(#clip-path-6);}.cls-11{clip-path:url(#clip-path-7);}.cls-12{clip-path:url(#clip-path-9);}.cls-13{clip-path:url(#clip-path-11);}.cls-14{clip-path:url(#clip-path-13);}</style><clipPath id="clip-path" transform="translate(1 1)"><path class="cls-1" d="M98,57.39a2.24,2.24,0,0,1,2.06,2c.35,1.74.76,5.21-1.17,6.35-1.59.94-4.91,1.61-6.69,2s-2.14-1.2-1.55-3.63c1.11-4.52,3.62-5.47,6.37-6.61A2.31,2.31,0,0,1,98,57.39ZM72.31,46.68H75a.75.75,0,0,1,.74.77v3.26h3.21a.75.75,0,0,1,.76.74v2.7a.74.74,0,0,1-.76.73H75.71v3.28a.73.73,0,0,1-.74.75H72.31a.73.73,0,0,1-.73-.75V54.88H68.35a.74.74,0,0,1-.75-.73v-2.7a.75.75,0,0,1,.75-.74h3.23V47.45A.75.75,0,0,1,72.31,46.68ZM55.68,10a20,20,0,0,1,1.22,1.87c.89,1.55,1.53,4.79.61,6.53l-1,1.87h40A180.91,180.91,0,0,1,98.13,43H57.77A22.9,22.9,0,0,1,50,57.36L61.17,61.9H84a2.36,2.36,0,0,1,2.56,1.82l.8,3.45c.56,2.63-2,4.17-4.58,4.17H71.39l2.92,6.91a3.74,3.74,0,0,1,.24.76H90.2v2.91A2,2,0,0,0,92.26,84h5.82a2.06,2.06,0,0,0,2.06-2.08V79c2.65-1.55,3.19-2.89,3.19-5.89V59.35c0-2.49-.18-7.94-.51-14.2h7a1.2,1.2,0,0,0,1.21-1.3l-.34-7.06c-.19-3.8-3.07-3.58-5.26-3.58a1.2,1.2,0,0,0-1.21,1.29l.33,6.84H102.6c-.54-9-1.36-18.69-2.43-23.75C99.3,13.48,96.83,10,92.67,10Z"/></clipPath><clipPath id="clip-path-2" transform="translate(1 1)"><path class="cls-1" d="M62.9,0A4,4,0,0,0,59,4.16V6a1.91,1.91,0,0,0,1.85,2H68V0Z"/></clipPath><clipPath id="clip-path-3" transform="translate(1 1)"><rect class="cls-2" x="59" width="9" height="8"/></clipPath><clipPath id="clip-path-4" transform="translate(1 1)"><rect class="cls-2" width="111" height="88"/></clipPath><clipPath id="clip-path-5" transform="translate(1 1)"><rect class="cls-2" x="-1" width="90" height="88"/></clipPath><clipPath id="clip-path-6" transform="translate(1 1)"><rect class="cls-2" x="71" width="6" height="8"/></clipPath><clipPath id="clip-path-7" transform="translate(1 1)"><path class="cls-1" d="M80,0V8h7.15A1.91,1.91,0,0,0,89,6V4.17A4,4,0,0,0,85.11,0Z"/></clipPath><clipPath id="clip-path-9" transform="translate(1 1)"><path class="cls-1" d="M35.5,5c-8.2,0-14.71,3.55-18,9.36A2.71,2.71,0,0,0,17.22,17l3.31,6h1.79a20.38,20.38,0,0,1,26.37,0h1.77l3.31-6a2.66,2.66,0,0,0-.29-2.65C50.22,8.55,43.69,5,35.5,5m-.82,2.83h1.55a.44.44,0,0,1,.43.45v1.93h1.88a.43.43,0,0,1,.44.44v1.59a.42.42,0,0,1-.44.43H36.66v1.94a.44.44,0,0,1-.43.45H34.68a.44.44,0,0,1-.43-.45V12.67H32.37a.42.42,0,0,1-.44-.43V10.65a.44.44,0,0,1,.44-.44h1.88V8.28a.44.44,0,0,1,.43-.45"/></clipPath><clipPath id="clip-path-11" transform="translate(1 1)"><path class="cls-1" d="M35,21A17.91,17.91,0,0,0,17,38.89v1.22a18,18,0,0,0,36,0V38.89A17.9,17.9,0,0,0,35,21m-8.59,9.16c1.77,1.73,4.95,2.89,8.59,2.89s6.83-1.16,8.6-2.89a12.93,12.93,0,0,1,3.92,9.34,12.52,12.52,0,1,1-25,0,12.93,12.93,0,0,1,3.92-9.34"/></clipPath><clipPath id="clip-path-13" transform="translate(1 1)"><path class="cls-1" d="M46,60l-9.45,9.49a1.5,1.5,0,0,1-2.1,0L25,60,8.34,66.72a8.84,8.84,0,0,0-4.63,5L.38,79.59c-1.21,2.83.74,4.22,2.11,4.55C8.19,85.52,24.41,88,35.5,88s27.32-2.48,33-3.86c1.36-.33,3.31-1.72,2.1-4.55L67.3,71.71a8.92,8.92,0,0,0-4.64-5Zm-2.3,16.07h11.5a.85.85,0,0,1,.86.86V78.7a.85.85,0,0,1-.86.86H43.69a.85.85,0,0,1-.86-.86V76.93A.85.85,0,0,1,43.69,76.07Z"/></clipPath></defs><g id="Camada_2" data-name="Camada 2"><g id="Camada_1-2" data-name="Camada 1"><g class="cls-3"><rect class="cls-4" x="50" y="10" width="63.04" height="76"/></g><g class="cls-5"><g class="cls-6"><rect class="cls-4" x="59" width="11" height="10"/></g></g><g class="cls-7"><g class="cls-8"><g class="cls-9"><g class="cls-10"><rect class="cls-4" x="71" width="8" height="10"/></g><g class="cls-11"><g class="cls-7"><rect class="cls-4" x="80" width="11" height="10"/></g></g><g class="cls-12"><g class="cls-7"><rect class="cls-4" x="16.85" y="5" width="39.3" height="20"/></g></g><g class="cls-13"><g class="cls-7"><rect class="cls-4" x="17" y="21" width="38" height="39"/></g></g><g class="cls-14"><g class="cls-7"><rect class="cls-4" y="60" width="73.83" height="30"/></g></g></g></g></g></g></g></svg>