<svg xmlns="http://www.w3.org/2000/svg" xmlns:xlink="http://www.w3.org/1999/xlink" viewBox="0 0 99.06 91.56"><defs><style>.cls-1{fill:none;clip-rule:evenodd;}.cls-2{clip-path:url(#clip-path);}.cls-3{fill:#6f1926;}.cls-4{clip-path:url(#clip-path-2);}</style><clipPath id="clip-path" transform="translate(1.02 2.56)"><path class="cls-1" d="M69.91,36.53,61,52.42l-9.24-9.74L40.92,61.22,30.12,33l-6.33,9.41H4A30.43,30.43,0,0,0,9.49,50L49,88,88.58,50A30,30,0,0,0,94,42.44H75.28Z"/></clipPath><clipPath id="clip-path-2" transform="translate(1.02 2.56)"><path class="cls-1" d="M48.51,8.55C41.9,2.84,35.61,0,29.79,0A29.93,29.93,0,0,0,8.7,8.57,29,29,0,0,0,0,29.33a29.77,29.77,0,0,0,.79,6.78H19.63L31.2,19.55,41.65,46,50,32.19l9.18,9.36,9.08-15.63,9.61,10.16H96.21A29.2,29.2,0,0,0,88.3,8.54C78-1.56,60.79-1.37,48.51,8.55Z"/></clipPath></defs><g id="Camada_2" data-name="Camada 2"><g id="Camada_1-2" data-name="Camada 1"><g class="cls-2"><rect class="cls-3" x="4.02" y="34.56" width="92" height="57"/></g><g class="cls-4"><rect class="cls-3" width="99.06" height="49.56"/></g></g></g></svg>