<svg xmlns="http://www.w3.org/2000/svg" xmlns:xlink="http://www.w3.org/1999/xlink" viewBox="0 0 91 91"><defs><style>.cls-1,.cls-2{fill:none;}.cls-1{clip-rule:evenodd;}.cls-3{clip-path:url(#clip-path);}.cls-4{clip-path:url(#clip-path-2);}.cls-5{fill:#791b28;}</style><clipPath id="clip-path" transform="translate(1 1)"><path class="cls-1" d="M60.73,89H28.27a2.07,2.07,0,0,1-2.07-2.07V62.8H2.07A2.07,2.07,0,0,1,0,60.73V28.27A2.07,2.07,0,0,1,2.07,26.2H26.2V2.07A2.07,2.07,0,0,1,28.27,0H60.73A2.07,2.07,0,0,1,62.8,2.07V26.2H86.93A2.07,2.07,0,0,1,89,28.27V60.73a2.07,2.07,0,0,1-2.07,2.07H62.8V86.93A2.07,2.07,0,0,1,60.73,89ZM30.34,84.85H58.66V60.73a2.07,2.07,0,0,1,2.07-2.07H84.85V30.34H60.73a2.07,2.07,0,0,1-2.07-2.07V4.15H30.34V28.27a2.06,2.06,0,0,1-2.07,2.07H4.15V58.66H28.27a2.06,2.06,0,0,1,2.07,2.07Z"/></clipPath><clipPath id="clip-path-2" transform="translate(1 1)"><rect class="cls-2" width="89" height="89"/></clipPath></defs><g id="Camada_2" data-name="Camada 2"><g id="Camada_1-2" data-name="Camada 1"><g class="cls-3"><g class="cls-4"><rect class="cls-5" width="91" height="91"/></g></g></g></g></svg>