<svg xmlns="http://www.w3.org/2000/svg" xmlns:xlink="http://www.w3.org/1999/xlink" viewBox="0 0 38.37 38.37"><defs><style>.cls-1,.cls-2{fill:none;}.cls-1{clip-rule:evenodd;}.cls-3{isolation:isolate;}.cls-4{clip-path:url(#clip-path);}.cls-5{clip-path:url(#clip-path-2);}.cls-6{fill:#e8e7e7;}.cls-7{clip-path:url(#clip-path-3);}.cls-8{fill:#9d2235;}.cls-9{clip-path:url(#clip-path-5);}</style><clipPath id="clip-path" transform="translate(1 1)"><path class="cls-1" d="M28.64,36.37H7.73A7.75,7.75,0,0,1,0,28.64V7.73A7.75,7.75,0,0,1,7.73,0H28.64a7.75,7.75,0,0,1,7.73,7.73V28.64a7.75,7.75,0,0,1-7.73,7.73"/></clipPath><clipPath id="clip-path-2" transform="translate(1 1)"><rect class="cls-2" width="302" height="42"/></clipPath><clipPath id="clip-path-3" transform="translate(1 1)"><polygon class="cls-1" points="14.4 14.96 18.47 14.96 21.63 21.74 24.8 14.96 28.86 14.96 21.63 29.43 14.4 14.96"/></clipPath><clipPath id="clip-path-5" transform="translate(1 1)"><path class="cls-1" d="M11.12,14.18v7.23H7.5V14.18a7.28,7.28,0,0,1,.55-2.77A7.18,7.18,0,0,1,12,7.5a7.1,7.1,0,0,1,2.77-.56v3.62a3.62,3.62,0,0,0-3.62,3.62"/></clipPath></defs><g id="Camada_2" data-name="Camada 2"><g id="Camada_1-2" data-name="Camada 1"><g class="cls-3"><g class="cls-4"><g class="cls-5"><rect class="cls-6" width="38.37" height="38.37"/></g></g><g class="cls-7"><g class="cls-5"><rect class="cls-8" x="14.4" y="14.96" width="16.46" height="16.46"/></g></g><g class="cls-9"><g class="cls-5"><rect class="cls-8" x="7.5" y="6.94" width="9.23" height="16.46"/></g></g></g></g></g></svg>