<svg xmlns="http://www.w3.org/2000/svg" xmlns:xlink="http://www.w3.org/1999/xlink" viewBox="0 0 303.53 43.43"><defs><style>.cls-1,.cls-2{fill:none;}.cls-1{clip-rule:evenodd;}.cls-3{clip-path:url(#clip-path);}.cls-4{fill:#e8e7e7;}.cls-5{clip-path:url(#clip-path-2);}.cls-6{clip-path:url(#clip-path-3);}.cls-7{clip-path:url(#clip-path-4);}.cls-8{clip-path:url(#clip-path-5);}.cls-9{isolation:isolate;}.cls-10{clip-path:url(#clip-path-6);}.cls-11{clip-path:url(#clip-path-7);}.cls-12{clip-path:url(#clip-path-8);}.cls-13{clip-path:url(#clip-path-9);}.cls-14{clip-path:url(#clip-path-11);}.cls-15{fill:#9d2235;}.cls-16{clip-path:url(#clip-path-13);}</style><clipPath id="clip-path" transform="translate(1 1)"><path class="cls-1" d="M55.92,18.19V33.68H48.17V18.19a15.57,15.57,0,0,1,4.54-11,15.53,15.53,0,0,1,5-3.36,15.27,15.27,0,0,1,5.93-1.18v7.75a7.45,7.45,0,0,0-5.48,2.27,7.47,7.47,0,0,0-2.27,5.48"/></clipPath><clipPath id="clip-path-2" transform="translate(1 1)"><path class="cls-1" d="M93.55,12.62a6.88,6.88,0,0,0-5.09-2.18A7.43,7.43,0,0,0,83,12.71a7.43,7.43,0,0,0-2.27,5.47A7.44,7.44,0,0,0,83,23.66a7.74,7.74,0,0,0,11,0,7.45,7.45,0,0,0,1.18-1.48l6.63,4a15.29,15.29,0,0,1-2.33,3,15.48,15.48,0,0,1-5,3.36,15.52,15.52,0,0,1-11.87,0,15.54,15.54,0,0,1-8.38-8.38,15.52,15.52,0,0,1,0-11.87,15.54,15.54,0,0,1,8.38-8.38,15.52,15.52,0,0,1,11.87,0A15.55,15.55,0,0,1,104,17.58l-17.37,5.3L84.53,15.4Z"/></clipPath><clipPath id="clip-path-3" transform="translate(1 1)"><path class="cls-1" d="M121,18.19V33.68h-7.74V18.19a15.51,15.51,0,0,1,9.56-14.32,15.5,15.5,0,0,1,16.89,3.36c.22.22.44.45.66.7l.67-.7a15.48,15.48,0,0,1,5-3.36,15.52,15.52,0,0,1,11.87,0,15.54,15.54,0,0,1,8.38,8.38,15.32,15.32,0,0,1,1.18,5.94V33.68h-7.75V18.19a7.44,7.44,0,0,0-2.27-5.48,7.74,7.74,0,0,0-10.95,0,7.44,7.44,0,0,0-2.27,5.48V33.68H136.5V18.19a7.47,7.47,0,0,0-2.27-5.48,7.75,7.75,0,0,0-11,0A7.47,7.47,0,0,0,121,18.19"/></clipPath><clipPath id="clip-path-4" transform="translate(1 1)"><path class="cls-1" d="M192.29,33.68a15.32,15.32,0,0,1-5.94-1.18A15.54,15.54,0,0,1,178,24.12a15.52,15.52,0,0,1,0-11.87,15.54,15.54,0,0,1,8.38-8.38,15.52,15.52,0,0,1,11.87,0,15.54,15.54,0,0,1,8.38,8.38,15.52,15.52,0,0,1,0,11.87,15.54,15.54,0,0,1-8.38,8.38,15.31,15.31,0,0,1-5.93,1.18m0-7.75a7.43,7.43,0,0,0,5.47-2.27A7.43,7.43,0,0,0,200,18.19a7.44,7.44,0,0,0-2.27-5.48,7.74,7.74,0,0,0-10.95,0,7.44,7.44,0,0,0-2.27,5.48,7.75,7.75,0,0,0,7.75,7.74"/></clipPath><clipPath id="clip-path-5" transform="translate(1 1)"><polygon class="cls-1" points="211.27 2.69 219.98 2.69 226.76 17.22 233.54 2.69 242.26 2.69 226.76 33.68 211.27 2.69"/></clipPath><clipPath id="clip-path-6" transform="translate(1 1)"><rect class="cls-2" x="252.52" y="2.69" width="7.75" height="30.99"/></clipPath><clipPath id="clip-path-7" transform="translate(1 1)"><path class="cls-1" d="M270.54,18.19a15.32,15.32,0,0,1,1.18-5.94,15.54,15.54,0,0,1,8.38-8.38,15.52,15.52,0,0,1,11.87,0,15.54,15.54,0,0,1,8.38,8.38,15.52,15.52,0,0,1,0,11.87A15.54,15.54,0,0,1,292,32.5a15.52,15.52,0,0,1-11.87,0,13.92,13.92,0,0,1-1.81-.91v9.84h-7.75ZM286,25.93a7.43,7.43,0,0,0,5.47-2.27,7.43,7.43,0,0,0,2.27-5.47,7.44,7.44,0,0,0-2.27-5.48,7.74,7.74,0,0,0-10.95,0,7.44,7.44,0,0,0-2.27,5.48A7.75,7.75,0,0,0,286,25.93Z"/></clipPath><clipPath id="clip-path-8" transform="translate(1 1)"><rect class="cls-2" width="302" height="42"/></clipPath><clipPath id="clip-path-9" transform="translate(1 1)"><path class="cls-1" d="M28.64,36.37H7.73A7.75,7.75,0,0,1,0,28.64V7.73A7.75,7.75,0,0,1,7.73,0H28.64a7.75,7.75,0,0,1,7.73,7.73V28.64a7.75,7.75,0,0,1-7.73,7.73"/></clipPath><clipPath id="clip-path-11" transform="translate(1 1)"><polygon class="cls-1" points="14.4 14.96 18.47 14.96 21.63 21.74 24.8 14.96 28.86 14.96 21.63 29.43 14.4 14.96"/></clipPath><clipPath id="clip-path-13" transform="translate(1 1)"><path class="cls-1" d="M11.12,14.18v7.23H7.5V14.18a7.28,7.28,0,0,1,.55-2.77A7.18,7.18,0,0,1,12,7.5a7.1,7.1,0,0,1,2.77-.56v3.62a3.62,3.62,0,0,0-3.62,3.62"/></clipPath></defs><g id="Camada_2" data-name="Camada 2"><g id="Camada_1-2" data-name="Camada 1"><g class="cls-3"><rect class="cls-4" x="48.17" y="2.69" width="17.5" height="32.99"/></g><g class="cls-5"><rect class="cls-4" x="72.97" y="2.69" width="32.99" height="32.99"/></g><g class="cls-6"><rect class="cls-4" x="113.26" y="2.69" width="56.23" height="32.99"/></g><g class="cls-7"><rect class="cls-4" x="176.79" y="2.69" width="32.99" height="32.99"/></g><g class="cls-8"><rect class="cls-4" x="211.27" y="2.69" width="32.99" height="32.99"/></g><g class="cls-9"><g class="cls-10"><rect class="cls-4" x="252.52" y="2.69" width="9.75" height="32.99"/></g><g class="cls-11"><g class="cls-12"><rect class="cls-4" x="270.54" y="2.69" width="32.99" height="40.74"/></g></g><g class="cls-13"><g class="cls-12"><rect class="cls-4" width="38.37" height="38.37"/></g></g><g class="cls-14"><g class="cls-12"><rect class="cls-15" x="14.4" y="14.96" width="16.46" height="16.46"/></g></g><g class="cls-16"><g class="cls-12"><rect class="cls-15" x="7.5" y="6.94" width="9.23" height="16.46"/></g></g></g></g></g></svg>